<svg width="167" height="255" viewBox="0 0 167 255" fill="none" xmlns="http://www.w3.org/2000/svg">
<rect width="62.9123" height="31.359" transform="matrix(0.696319 0.717732 -0.736781 0.676132 37.3511 85.174)" fill="#1A1A1A"/>
<path d="M107.788 8.10536L152.542 56.5049L41.1938 133.494L8.02655 100.352L107.788 8.10536Z" fill="#1A1A1A"/>
<path d="M21.5615 182.123L66.9176 116.858L87.3291 136.129L21.5615 182.123Z" fill="#1A1A1A"/>
<path d="M111.486 37.0986L122.795 48.7539L43.5527 110.324L36.3931 103.886L111.486 37.0986Z" fill="#FFD451"/>
<rect x="69.8617" y="57.3996" width="31.8832" height="18.219" transform="rotate(47.2409 69.8617 57.3996)" fill="#1A1A1A"/>
<rect width="62.9123" height="31.359" transform="matrix(-0.696319 -0.717732 0.736781 -0.676132 128.993 169.285)" fill="#FFD451"/>
<path d="M58.5563 246.354L13.8023 197.955L125.15 120.966L158.317 154.107L58.5563 246.354Z" fill="#FFD451"/>
<path d="M144.782 72.336L99.4263 137.601L79.0148 118.33L144.782 72.336Z" fill="#FFD451"/>
<path d="M54.8581 217.361L43.5492 205.706L122.791 144.135L129.951 150.574L54.8581 217.361Z" fill="#1A1A1A"/>
<rect x="96.4822" y="197.06" width="31.8832" height="18.219" transform="rotate(-132.759 96.4822 197.06)" fill="#FFD451"/>
</svg>
