<svg width="109" height="164" viewBox="0 0 109 164" fill="none" xmlns="http://www.w3.org/2000/svg">
<path d="M56.6481 83.8005L38.4782 100.475L7.53075 68.5755L25.7006 51.9014L56.6481 83.8005Z" fill="#1A1A1A" stroke="white" stroke-width="5"/>
<path d="M101.613 37.8288L99.2431 39.4679L29.431 87.7376L27.7157 88.9234L26.2419 87.4504L5.44626 66.6711L3.60672 64.8328L69.8999 3.53283L101.613 37.8288Z" fill="#1A1A1A" stroke="white" stroke-width="5"/>
<path d="M13.5999 114.793L42.0369 73.8725L43.7328 71.4327L60.8722 87.6144L58.4136 89.3342L17.1788 118.172L13.5999 114.793Z" fill="#1A1A1A" stroke="white" stroke-width="5"/>
<path d="M80.7049 34.5255L31.0221 73.129L29.3703 74.4117L27.816 73.0135L23.3271 68.9775L21.2482 67.108L23.3376 65.25L70.4189 23.3757L72.2077 21.7854L73.8743 23.5025L80.9646 30.8107L82.9078 32.8132L80.7049 34.5255Z" fill="#FFD451" stroke="white" stroke-width="5"/>
<path d="M63.0875 52.7874L51.0296 63.9372L34.0633 45.589L46.1212 34.4393L63.0875 52.7874Z" fill="#1A1A1A" stroke="white" stroke-width="5"/>
<path d="M52.0082 79.7076L70.178 63.0334L101.126 94.9326L82.9557 111.607L52.0082 79.7076Z" fill="#FFD451" stroke="white" stroke-width="5"/>
<path d="M7.0436 125.679L9.41312 124.04L79.2253 75.7705L80.9406 74.5847L82.4143 76.0577L103.21 96.837L105.05 98.6753L38.7564 159.975L7.0436 125.679Z" fill="#FFD451" stroke="white" stroke-width="5"/>
<path d="M95.0563 48.7152L66.6194 89.6356L64.9234 92.0754L47.7841 75.8937L50.2426 74.1739L91.4775 45.3363L95.0563 48.7152Z" fill="#FFD451" stroke="white" stroke-width="5"/>
<path d="M27.9513 128.983L77.6341 90.3791L79.2859 89.0964L80.8402 90.4946L85.3291 94.5306L87.408 96.4001L85.3186 98.2581L38.2374 140.132L36.4485 141.723L34.782 140.006L27.6917 132.697L25.7485 130.695L27.9513 128.983Z" fill="#1A1A1A" stroke="white" stroke-width="5"/>
<path d="M45.5688 110.721L57.6267 99.5709L74.593 117.919L62.5351 129.069L45.5688 110.721Z" fill="#FFD451" stroke="white" stroke-width="5"/>
<rect x="29.1562" y="88.5243" width="18.0523" height="44.8171" transform="rotate(35.3439 29.1562 88.5243)" fill="white"/>
<rect x="91.1091" y="28.201" width="17.5022" height="46.5923" transform="rotate(35.3439 91.1091 28.201)" fill="white"/>
<path d="M25.5994 55.386L53.0655 83.6967L38.5793 96.9904L11.1133 68.6797L25.5994 55.386Z" fill="#1A1A1A"/>
<path d="M69.7616 7.06566L97.8214 37.4111L28.0088 85.6815L7.21363 64.9025L69.7616 7.06566Z" fill="#1A1A1A"/>
<path d="M15.6997 116.171L44.137 75.2515L56.9346 87.334L15.6997 116.171Z" fill="#1A1A1A"/>
<path d="M72.0803 25.2438L79.1707 32.5514L29.4877 71.1547L24.9988 67.118L72.0803 25.2438Z" fill="#FFD451"/>
<path d="M45.9829 37.9721L59.5545 52.6491L51.1677 60.4043L37.596 45.7273L45.9829 37.9721Z" fill="#1A1A1A"/>
<path d="M83.0568 108.122L55.5907 79.8114L70.0769 66.5177L97.543 94.8283L83.0568 108.122Z" fill="#FFD451"/>
<path d="M38.8946 156.442L10.8348 126.097L80.6475 77.8266L101.443 98.6056L38.8946 156.442Z" fill="#FFD451"/>
<path d="M92.9565 47.3369L64.5192 88.2567L51.7216 76.1741L92.9565 47.3369Z" fill="#FFD451"/>
<path d="M36.576 138.264L29.4855 130.957L79.1685 92.3534L83.6574 96.3901L36.576 138.264Z" fill="#1A1A1A"/>
<path d="M62.6734 125.536L49.1017 110.859L57.4886 103.104L71.0602 117.781L62.6734 125.536Z" fill="#FFD451"/>
</svg>
